# xmcd
#
# Track frame offsets:
# 150
# 12767
# 24387
# 34875
# 45527
# 56770
# 68085
# 79550
# 94507
# 113957
# 125380
# 136970
#
# Disc length: 1976 seconds
#
#
# Revision: 4
# Processed by: cddbd v1.5.2PL0 Copyright (c) Steve Scherf et al.
# Submitted via: FreeRIP 2.30 
#
DISCID=9207b60c
DTITLE=Washington, Dinah 1959 - What A Diff'rence A Day M - What a Diff'rence a Day Makes!
DYEAR=1984
DGENRE=Blues
TTITLE0=I Remember You
TTITLE1=I Thought About You
TTITLE2=That's All There Is To That
TTITLE3=I Won't Cry Anymore
TTITLE4=I'm Thru With love
TTITLE5=Cry Me a River
TTITLE6=What a Diff'rence a Day Made
TTITLE7=Nothing In the World
TTITLE8=Manhattan
TTITLE9=Time After Time
TTITLE10=It's Magic
TTITLE11=A Sunday Kind of Love
EXTD=LABEL =Polygram Records, Inc.\nID =818815-2M-1\nUPC =422-818815-2\nCOPYRIGHT =1984
EXTT0=
EXTT1=
EXTT2=
EXTT3=
EXTT4=
EXTT5=
EXTT6=
EXTT7=
EXTT8=
EXTT9=
EXTT10=
EXTT11=
PLAYORDER=
